<svg width="14" height="12" viewBox="0 0 14 12" fill="none" xmlns="http://www.w3.org/2000/svg">
<path d="M8.70312 11.7031L13.7031 6.70312C13.901 6.51562 14 6.28125 14 6C14 5.71875 13.901 5.48438 13.7031 5.29688L8.70312 0.296875C8.51562 0.0989583 8.28125 0 8 0C7.71875 0 7.48438 0.0989583 7.29688 0.296875C7.09896 0.484375 7 0.71875 7 1C7 1.28125 7.09896 1.51562 7.29688 1.70312L10.5781 5H1C0.71875 5 0.479167 5.09896 0.28125 5.29688C0.09375 5.48438 0 5.71875 0 6C0 6.28125 0.09375 6.52083 0.28125 6.71875C0.479167 6.90625 0.71875 7 1 7H10.5781L7.29688 10.2969C7.19271 10.3906 7.11458 10.5 7.0625 10.625C7.02083 10.75 7 10.875 7 11C7 11.125 7.02083 11.25 7.0625 11.375C7.11458 11.5 7.19271 11.6094 7.29688 11.7031C7.48438 11.901 7.71875 12 8 12C8.28125 12 8.51562 11.901 8.70312 11.7031Z" fill="#111111"/>
</svg>
