<svg width="14" height="12" viewBox="0 0 14 12" fill="none" xmlns="http://www.w3.org/2000/svg">
    <g id="arrow">
        <path d="M8.70312 11.7031L13.7031 6.70312C13.901 6.51562 14 6.28125 14 6C14 5.71875 13.901 5.48438 13.7031 5.29688L8.70312 0.296875C8.51562 0.0989583 8.28125 0 8 0C7.71875 0 7.48438 0.0989583 7.29688 0.296875C7.09896 0.484375 7 0.71875 7 1C7 1.28125 7.09896 1.51562 7.29688 1.70312L10.5781 5H1C0.71875 5 0.479167 5.09896 0.28125 5.29688C0.09375 5.48438 0 5.71875 0 6C0 6.28125 0.09375 6.52083 0.28125 6.71875C0.479167 6.90625 0.71875 7 1 7H10.5781L7.29688 10.2969C7.19271 10.3906 7.11458 10.5 7.0625 10.625C7.02083 10.75 7 10.875 7 11C7 11.125 7.02083 11.25 7.0625 11.375C7.11458 11.5 7.19271 11.6094 7.29688 11.7031C7.48438 11.901 7.71875 12 8 12C8.28125 12 8.51562 11.901 8.70312 11.7031Z"
              fill="#111111"/>
    </g>
    <g id="arrow_2">
        <path d="M0.375 3.47266L3.24609 0.875L26.625 22.75L3.24609 44.625L0.375 42.0273L20.8828 22.75L0.375 3.47266Z"
              fill="#A9A9A9"/>
    </g>
    <g id="facebook">
        <path d="M4.5 4.99902H6.75L6.46875 7.24902H4.5V13.999H1.58203V7.24902H0V4.99902H1.58203V3.4873C1.58203 2.50293 1.82812 1.76465 2.32031 1.27246C2.8125 0.756836 3.63281 0.499023 4.78125 0.499023H6.75V2.74902H5.55469C5.10938 2.74902 4.81641 2.81934 4.67578 2.95996C4.55859 3.10059 4.5 3.33496 4.5 3.66309V4.99902Z" fill="#8C8C8C"/>
    </g>
    <g id="in">
        <path d="M12.4102 0.499023C12.7148 0.499023 12.9727 0.604492 13.1836 0.81543C13.3945 1.00293 13.5 1.24902 13.5 1.55371V12.8389C13.5 13.1436 13.3945 13.4131 13.1836 13.6475C12.9727 13.8818 12.7148 13.999 12.4102 13.999H1.16016C0.855469 13.999 0.585938 13.8818 0.351562 13.6475C0.117188 13.4131 0 13.1436 0 12.8389V1.55371C0 1.24902 0.105469 1.00293 0.316406 0.81543C0.550781 0.604492 0.832031 0.499023 1.16016 0.499023H12.4102ZM4.18359 11.749V5.7373H2.25V11.749H4.18359ZM2.53125 4.54199C2.71875 4.72949 2.96484 4.82324 3.26953 4.82324C3.57422 4.82324 3.82031 4.72949 4.00781 4.54199C4.21875 4.33105 4.32422 4.08496 4.32422 3.80371C4.32422 3.49902 4.23047 3.25293 4.04297 3.06543C3.85547 2.85449 3.60938 2.74902 3.30469 2.74902C3 2.74902 2.74219 2.85449 2.53125 3.06543C2.34375 3.25293 2.25 3.49902 2.25 3.80371C2.25 4.08496 2.34375 4.33105 2.53125 4.54199ZM11.25 11.749V8.2334C11.25 7.36621 11.0391 6.70996 10.6172 6.26465C10.2188 5.81934 9.69141 5.59668 9.03516 5.59668C8.33203 5.59668 7.74609 5.9248 7.27734 6.58105V5.7373H5.34375V11.749H7.27734V8.33887C7.27734 8.10449 7.30078 7.94043 7.34766 7.84668C7.53516 7.37793 7.86328 7.14355 8.33203 7.14355C8.98828 7.14355 9.31641 7.57715 9.31641 8.44434V11.749H11.25Z" fill="#8C8C8C"/>
    </g>
    <g id="twitter">
        <path d="M16.5938 2.11621C16.1719 2.77246 15.6094 3.3584 14.9062 3.87402V4.2959C14.9062 6.75684 14.0156 8.99512 12.2344 11.0107C10.4766 13.0029 8.13281 13.999 5.20312 13.999C3.32812 13.999 1.59375 13.4834 0 12.4521C0.375 12.499 0.644531 12.5225 0.808594 12.5225C2.37891 12.5225 3.78516 12.0303 5.02734 11.0459C4.30078 11.0225 3.64453 10.7998 3.05859 10.3779C2.47266 9.93262 2.07422 9.37012 1.86328 8.69043C2.14453 8.7373 2.35547 8.76074 2.49609 8.76074C2.73047 8.76074 3.03516 8.71387 3.41016 8.62012C2.63672 8.45605 1.98047 8.06934 1.44141 7.45996C0.925781 6.82715 0.667969 6.10059 0.667969 5.28027V5.24512C1.18359 5.52637 1.69922 5.66699 2.21484 5.66699C1.20703 5.01074 0.703125 4.06152 0.703125 2.81934C0.703125 2.2334 0.855469 1.6709 1.16016 1.13184C2.96484 3.3584 5.29688 4.54199 8.15625 4.68262C8.10938 4.51855 8.08594 4.26074 8.08594 3.90918C8.08594 2.94824 8.41406 2.13965 9.07031 1.4834C9.72656 0.827148 10.5352 0.499023 11.4961 0.499023C12.457 0.499023 13.2773 0.862305 13.957 1.58887C14.6602 1.47168 15.3867 1.19043 16.1367 0.745117C15.9023 1.56543 15.3984 2.19824 14.625 2.64355C15.3516 2.57324 16.0078 2.39746 16.5938 2.11621Z" fill="#8C8C8C"/>
    </g>
    <g id="youtube">
        <path d="M17.8945 3.4873C17.9648 4.75293 18 6.00684 18 7.24902C18 8.49121 17.9648 9.74512 17.8945 11.0107C17.8945 11.8076 17.6367 12.4873 17.1211 13.0498C16.6289 13.5889 16.0195 13.8584 15.293 13.8584C13.4883 13.9521 11.3906 13.999 9 13.999C6.60938 13.999 4.51172 13.9521 2.70703 13.8584C1.98047 13.8584 1.35938 13.5889 0.84375 13.0498C0.351562 12.4873 0.105469 11.8076 0.105469 11.0107C0.0351562 9.74512 0 8.49121 0 7.24902C0 6.42871 0.046875 5.1748 0.140625 3.4873C0.140625 2.69043 0.386719 2.02246 0.878906 1.4834C1.37109 0.920898 1.98047 0.639648 2.70703 0.639648C4.41797 0.545898 6.41016 0.499023 8.68359 0.499023H9H9.31641C11.5898 0.499023 13.582 0.545898 15.293 0.639648C16.0195 0.639648 16.6289 0.920898 17.1211 1.4834C17.6367 2.02246 17.8945 2.69043 17.8945 3.4873ZM7.27734 10.6943L12.375 7.24902L7.27734 3.76855V10.6943Z" fill="#8C8C8C"/>
    </g>
    <g id="quotes">
        <path d="M87.5047 128.014C83.2247 128.014 79.1174 128.743 75.0293 129.408C76.3536 124.433 77.7163 119.373 79.9043 114.827C82.0923 108.222 85.5086 102.497 88.9058 96.7289C91.7463 90.489 96.7556 86.2647 100.441 80.9254C104.298 75.7363 109.557 72.284 113.722 67.9739C117.81 63.4709 123.165 61.2194 127.426 58.0459C131.879 55.194 135.756 52.0419 139.901 50.5409L150.246 45.7806L159.344 41.5563L150.035 0L138.577 3.08777C134.911 4.11702 130.439 5.31783 125.353 6.7545C120.152 7.82664 114.605 10.7643 108.425 13.4447C102.322 16.4896 95.2586 18.5481 88.6946 23.4371C82.0923 28.1116 74.4727 32.0142 67.7552 38.2755C61.2488 44.7299 53.3989 50.3265 47.6027 58.5391C41.269 66.2156 35.0122 74.2781 30.1564 83.4557C24.5329 92.2044 20.7135 101.811 16.683 111.31C13.0363 120.809 10.0998 130.523 7.70071 139.958C3.15199 158.87 1.11755 176.839 0.330641 192.214C-0.321917 207.61 0.0619402 220.411 0.868041 229.675C1.15593 234.049 1.69334 238.295 2.07719 241.232L2.55701 244.835L3.05603 244.706C6.46969 262.522 14.3281 278.893 25.7221 291.927C37.1161 304.961 51.5802 314.125 67.4412 318.359C83.3021 322.592 99.9118 321.723 115.349 315.85C130.786 309.978 144.419 299.343 154.672 285.175C164.925 271.007 171.378 253.886 173.286 235.792C175.193 217.698 172.476 199.371 165.449 182.93C158.423 166.489 147.374 152.606 133.58 142.888C119.786 133.17 103.812 128.013 87.5047 128.014ZM298.626 128.014C294.346 128.014 290.239 128.743 286.151 129.408C287.475 124.433 288.838 119.373 291.026 114.827C293.214 108.222 296.63 102.497 300.027 96.7289C302.868 90.489 307.877 86.2647 311.562 80.9254C315.42 75.7363 320.679 72.284 324.844 67.9739C328.932 63.4709 334.287 61.2194 338.547 58.0459C343 55.194 346.877 52.0419 351.023 50.5409L361.368 45.7806L370.465 41.5563L361.157 0L349.698 3.08777C346.033 4.11702 341.561 5.31783 336.475 6.7545C331.273 7.82664 325.727 10.7643 319.547 13.4447C313.462 16.511 306.38 18.5481 299.816 23.4585C293.214 28.1331 285.594 32.0357 278.877 38.297C272.37 44.7513 264.521 50.3479 258.724 58.5391C252.391 66.2156 246.134 74.2781 241.278 83.4557C235.654 92.2044 231.835 101.811 227.805 111.31C224.158 120.809 221.221 130.523 218.822 139.958C214.274 158.87 212.239 176.839 211.452 192.214C210.8 207.61 211.184 220.411 211.99 229.675C212.278 234.049 212.815 238.295 213.199 241.232L213.679 244.835L214.178 244.706C217.591 262.522 225.45 278.893 236.844 291.927C248.238 304.961 262.702 314.125 278.563 318.359C294.424 322.592 311.033 321.723 326.47 315.85C341.907 309.978 355.541 299.343 365.794 285.175C376.047 271.007 382.5 253.886 384.407 235.792C386.314 217.698 383.598 199.371 376.571 182.93C369.544 166.489 358.495 152.606 344.702 142.888C330.908 133.17 314.934 128.013 298.626 128.014Z" fill="#CFCFCF" fill-opacity="0.2"/>
    </g>
</svg>
