<!-- icon666.com - MILLIONS vector ICONS FREE --><svg enable-background="new 0 0 64 64" viewBox="0 0 64 64" xmlns="http://www.w3.org/2000/svg"><g id="V"><path d="m32 3.85c-15.54 0-28.15 12.61-28.15 28.15s12.61 28.15 28.15 28.15 28.15-12.61 28.15-28.15-12.61-28.15-28.15-28.15zm13.26 15.19-10.88 30.42c-.11.29-.38.48-.69.48h-4.33c-.32 0-.59-.2-.69-.5l-9.93-30.42c-.07-.229-.04-.47.1-.659.14-.19.36-.301.59-.301h4.24c.32 0 .6.21.7.511l4.74 14.989c.67 2.11 1.18 3.771 1.61 5.221.14.46.55.77 1.05.779.48 0 .89-.31 1.04-.76.58-1.83 1.17-3.59 1.73-5.21l5.14-15.04c.1-.29.38-.49.69-.49h4.2c.24 0 .46.12.6.311.13.189.17.439.09.669z"></path></g></svg>